<svg viewBox="0 0 64 64" fill="none" xmlns="http://www.w3.org/2000/svg">
  <path d="M48 12C54.6 17.2 58 24.8 58 32s-3.4 14.8-10 20" stroke="#6b8cff" stroke-width="3" stroke-linecap="round" opacity="0.4"/>
  <path d="M44 18C48.8 21.8 52 26.6 52 32s-3.2 10.2-8 14" stroke="#6b8cff" stroke-width="3" stroke-linecap="round" opacity="0.65"/>
  <path d="M40 24C43.2 26.6 46 29 46 32s-2.8 5.4-6 8" stroke="#6b8cff" stroke-width="3" stroke-linecap="round" opacity="0.9"/>
  <rect x="18" y="16" width="14" height="22" rx="7" fill="#6b8cff"/>
  <path d="M14 34C14 42.8 19.4 48 25 48" stroke="#9ca3af" stroke-width="2.5" stroke-linecap="round" fill="none"/>
  <path d="M36 34C36 42.8 30.6 48 25 48" stroke="#9ca3af" stroke-width="2.5" stroke-linecap="round" fill="none"/>
  <line x1="25" y1="48" x2="25" y2="56" stroke="#9ca3af" stroke-width="2.5" stroke-linecap="round"/>
  <line x1="19" y1="56" x2="31" y2="56" stroke="#9ca3af" stroke-width="2.5" stroke-linecap="round"/>
</svg>
